<?xml version="1.0" standalone="no"?><!DOCTYPE svg PUBLIC "-//W3C//DTD SVG 1.1//EN" "http://www.w3.org/Graphics/SVG/1.1/DTD/svg11.dtd"><svg t="1578919363267" class="icon" viewBox="0 0 1024 1024" version="1.1" xmlns="http://www.w3.org/2000/svg" p-id="2518" xmlns:xlink="http://www.w3.org/1999/xlink" width="32" height="32"><defs><style type="text/css"></style></defs><path d="M917.333333 1024H106.666667a85.333333 85.333333 0 0 1-85.333334-85.333333l85.333334-597.333334a85.333333 85.333333 0 0 1 85.333333-85.333333h64a256 256 0 0 1 512 0h64a85.333333 85.333333 0 0 1 85.333333 85.333333l85.333334 597.333334a85.333333 85.333333 0 0 1-85.333334 85.333333zM512 42.666667a213.333333 213.333333 0 0 0-213.333333 213.333333h426.666666A213.333333 213.333333 0 0 0 512 42.666667z m362.666667 298.666666a42.666667 42.666667 0 0 0-42.666667-42.666666h-64v128a21.333333 21.333333 0 0 1-42.666667 0v-128H298.666667v128a21.333333 21.333333 0 1 1-42.666667 0v-128H192a42.666667 42.666667 0 0 0-42.666667 42.666666L64 938.666667a42.666667 42.666667 0 0 0 42.666667 42.666666h810.666666a42.666667 42.666667 0 0 0 42.666667-42.666666z" p-id="2519"></path></svg>